<?xml version="1.0" standalone="no"?>
<!DOCTYPE svg PUBLIC "-//W3C//DTD SVG 20010904//EN"
 "http://www.w3.org/TR/2001/REC-SVG-20010904/DTD/svg10.dtd">
<svg version="1.0" xmlns="http://www.w3.org/2000/svg"
 width="2000.000000pt" height="2000.000000pt" viewBox="0 0 2000.000000 2000.000000"
 preserveAspectRatio="xMidYMid meet">
<metadata>
Created by potrace 1.11, written by Peter Selinger 2001-2013
</metadata>
<g transform="translate(0.000000,2000.000000) scale(0.100000,-0.100000)"
fill="#000000" stroke="none">
<path d="M9947 19914 c-1 -1 -117 -4 -257 -8 -140 -3 -273 -8 -295 -10 -22 -2
-83 -7 -135 -11 -52 -3 -113 -8 -135 -10 -22 -2 -69 -7 -105 -10 -36 -3 -81
-8 -100 -10 -19 -3 -55 -7 -80 -9 -89 -9 -145 -16 -165 -21 -11 -2 -47 -7 -80
-11 -33 -3 -62 -7 -65 -9 -3 -2 -33 -7 -65 -10 -33 -4 -69 -9 -80 -11 -11 -2
-33 -6 -50 -9 -16 -3 -52 -10 -80 -15 -27 -5 -65 -12 -83 -15 -18 -3 -110 -21
-205 -41 -208 -43 -202 -42 -202 -44 0 -1 -7 -3 -16 -5 -385 -74 -1155 -326
-1654 -540 -384 -165 -881 -419 -1197 -614 -14 -9 -61 -38 -105 -64 -108 -66
-95 -58 -301 -195 -207 -138 -432 -301 -602 -436 -63 -50 -123 -98 -134 -106
-43 -33 -384 -327 -430 -369 -341 -318 -676 -664 -862 -891 -16 -19 -31 -37
-34 -40 -5 -4 -62 -73 -190 -231 -215 -264 -539 -731 -732 -1054 -42 -71 -82
-135 -88 -142 -5 -7 -10 -14 -10 -17 0 -2 -19 -37 -42 -78 -102 -181 -295
-558 -370 -723 -15 -33 -44 -96 -64 -140 -92 -202 -228 -547 -306 -775 -90
-264 -216 -689 -242 -815 -1 -5 -5 -19 -9 -30 -3 -11 -8 -31 -11 -45 -2 -14
-14 -65 -26 -115 -12 -49 -23 -99 -26 -110 -10 -50 -35 -172 -39 -195 -3 -14
-11 -59 -19 -100 -16 -81 -26 -137 -33 -185 -2 -16 -8 -55 -13 -85 -5 -30 -11
-68 -14 -85 -2 -16 -7 -48 -11 -70 -6 -43 -9 -64 -20 -165 -4 -36 -9 -74 -11
-85 -2 -11 -6 -47 -9 -80 -3 -33 -7 -76 -10 -95 -4 -32 -7 -60 -20 -217 -5
-71 -15 -239 -20 -353 -6 -111 -6 -713 -1 -810 9 -159 17 -307 21 -350 2 -25
7 -85 10 -135 3 -49 8 -97 10 -105 2 -8 6 -44 10 -80 3 -36 8 -81 10 -100 3
-19 7 -55 10 -80 5 -46 12 -97 29 -205 9 -60 17 -111 21 -140 8 -57 35 -210
45 -260 14 -68 19 -95 26 -130 10 -59 55 -261 70 -320 9 -33 18 -68 20 -78 2
-10 6 -27 9 -37 3 -10 8 -29 10 -41 28 -145 273 -923 325 -1034 5 -11 28 -67
51 -125 74 -188 80 -204 129 -315 171 -393 372 -786 564 -1105 44 -74 85 -143
91 -152 47 -81 244 -380 338 -513 245 -346 518 -686 787 -979 159 -174 426
-442 589 -592 35 -32 81 -75 102 -94 39 -37 56 -52 154 -134 33 -28 62 -54 65
-57 3 -3 59 -49 125 -103 66 -54 129 -105 140 -115 11 -9 58 -45 105 -81 47
-35 90 -68 95 -72 6 -5 35 -27 65 -49 30 -22 64 -47 75 -55 138 -101 423 -292
590 -394 66 -40 131 -80 145 -90 14 -9 45 -27 70 -40 25 -14 52 -30 60 -36 8
-7 47 -28 85 -49 39 -20 90 -48 115 -62 25 -14 144 -76 265 -137 188 -96 288
-144 540 -256 68 -31 237 -100 305 -126 36 -14 74 -29 85 -33 11 -5 45 -18 75
-29 30 -11 75 -28 100 -37 83 -31 501 -168 565 -185 17 -4 68 -19 115 -33 105
-31 240 -65 435 -112 107 -25 131 -30 178 -39 12 -3 47 -10 77 -16 30 -7 64
-13 75 -15 11 -2 67 -13 125 -24 58 -11 121 -22 140 -25 31 -4 188 -29 260
-41 14 -2 51 -7 83 -10 32 -4 66 -8 76 -10 31 -6 242 -29 366 -40 111 -10 338
-25 455 -31 110 -5 731 -5 835 1 123 6 285 16 335 20 25 2 79 7 120 10 41 3
91 7 110 10 19 2 60 7 90 10 30 3 71 7 90 10 19 2 58 7 85 10 28 3 61 8 75 10
14 2 61 9 105 15 80 11 421 68 459 76 12 3 41 9 66 13 230 44 638 145 910 228
225 68 660 218 780 270 19 8 44 19 55 24 11 5 44 18 74 29 30 12 73 29 95 39
23 10 79 35 126 56 229 99 621 294 822 408 65 37 120 67 123 67 3 0 29 15 58
34 28 18 129 80 222 136 94 57 172 107 175 110 3 3 37 25 75 50 106 66 429
297 541 385 28 22 62 48 75 57 28 20 48 36 238 193 80 66 164 136 186 156 22
20 87 78 145 130 216 195 520 497 690 688 41 47 95 107 120 135 25 28 70 80
100 116 30 36 57 67 60 70 18 18 224 278 311 395 166 221 402 562 452 655 11
19 37 61 58 92 22 31 39 59 39 62 0 3 17 31 37 63 57 89 251 442 335 608 182
361 355 762 474 1100 132 371 282 876 328 1105 3 14 7 34 10 45 9 38 38 170
42 195 3 14 13 66 24 115 10 50 21 108 24 130 4 22 10 63 16 90 5 28 11 64 14
80 2 17 9 59 15 95 5 36 13 88 16 115 3 28 7 60 9 71 4 21 26 196 31 244 1 14
5 54 9 90 19 186 30 351 41 590 5 107 6 691 1 790 -6 122 -18 318 -21 357 -2
21 -6 74 -10 118 -3 44 -8 96 -10 115 -2 19 -7 66 -11 105 -3 38 -7 76 -9 85
-1 8 -6 40 -9 70 -15 123 -51 362 -61 410 -3 14 -7 41 -10 60 -2 19 -7 46 -9
60 -11 51 -16 76 -21 105 -20 123 -143 656 -176 760 -5 17 -32 109 -60 205
-107 365 -255 767 -429 1165 -118 270 -374 774 -477 937 -12 21 -23 40 -23 42
0 18 -299 486 -437 684 -150 215 -474 639 -517 677 -6 6 -22 23 -34 39 -139
180 -543 605 -816 860 -60 55 -117 108 -126 117 -54 51 -325 281 -439 373
-495 397 -1016 739 -1581 1039 -248 131 -626 309 -825 387 -11 4 -36 15 -55
23 -19 8 -66 27 -105 42 -38 15 -79 31 -90 36 -11 5 -47 18 -80 30 -33 11 -73
27 -90 34 -53 23 -516 171 -665 213 -137 39 -435 115 -490 126 -14 3 -65 14
-115 25 -49 11 -101 22 -115 24 -14 3 -36 8 -50 11 -14 3 -38 8 -55 11 -16 3
-55 9 -85 15 -82 15 -90 16 -160 28 -94 17 -186 30 -357 52 -43 5 -94 12 -113
15 -42 5 -100 12 -195 21 -117 11 -136 12 -245 19 -58 4 -116 8 -130 11 -29 5
-648 22 -653 18z"/>
</g>
</svg>
